# xmcd CD Database Entry
#
# Track frame offsets:
# 150
# 15347
# 31287
# 53802
# 74337
# 105467
#
# Disc length: 2129 seconds
#
# Revision: 4
# Processed by: cddbd v1.4PL0 Copyright (c) Steve Scherf et al.
# Submitted via: tcd 2.0b
#
DISCID=41084f06
DTITLE=Indigenous - Blues This Morning
DYEAR=1900
DGENRE=
TTITLE0=Blues This Morning
TTITLE1=What's Goin' On
TTITLE2=Million Miles
TTITLE3=Talk To Me Baby
TTITLE4=Holdin' Out
TTITLE5=Red House
EXTD=
EXTT0=
EXTT1=
EXTT2=
EXTT3=
EXTT4=
EXTT5=
PLAYORDER=
